<svg xmlns="http://www.w3.org/2000/svg" width="26.873" height="30.712" viewBox="0 0 26.873 30.712">
  <path id="calendar-check" d="M23.994,3.839H21.115V.72A.72.72,0,0,0,20.4,0H18a.72.72,0,0,0-.72.72V3.839H9.6V.72A.72.72,0,0,0,8.878,0h-2.4a.72.72,0,0,0-.72.72V3.839H2.879A2.879,2.879,0,0,0,0,6.718V27.833a2.879,2.879,0,0,0,2.879,2.879H23.994a2.879,2.879,0,0,0,2.879-2.879V6.718A2.879,2.879,0,0,0,23.994,3.839Zm-.36,23.994H3.239a.36.36,0,0,1-.36-.36V9.6H23.994V27.473A.36.36,0,0,1,23.634,27.833ZM20.464,15.8l-8.536,8.468a.72.72,0,0,1-1.018,0l-4.5-4.541a.72.72,0,0,1,0-1.018L7.772,17.35a.72.72,0,0,1,1.018,0l2.646,2.667L18.1,13.412a.72.72,0,0,1,1.018,0l1.352,1.363a.72.72,0,0,1,0,1.018Z" fill="#fff"/>
</svg>
