<svg xmlns="http://www.w3.org/2000/svg" width="34.336" height="20.602" viewBox="0 0 34.336 20.602">
  <path id="money-bill-alt" d="M18.885,76.018h-.858V71.3a.429.429,0,0,0-.429-.429h-.729a1.286,1.286,0,0,0-.714.216l-.822.548a.429.429,0,0,0-.119.595l.476.714a.429.429,0,0,0,.595.119l.025-.017v2.974h-.858a.429.429,0,0,0-.429.429v.858a.429.429,0,0,0,.429.429h3.434a.429.429,0,0,0,.429-.429v-.858A.429.429,0,0,0,18.885,76.018ZM32.619,64H1.717A1.717,1.717,0,0,0,0,65.717V82.885A1.717,1.717,0,0,0,1.717,84.6h30.9a1.717,1.717,0,0,0,1.717-1.717V65.717A1.717,1.717,0,0,0,32.619,64ZM2.575,82.026V78.593a3.433,3.433,0,0,1,3.434,3.434Zm0-12.018V66.575H6.009A3.433,3.433,0,0,1,2.575,70.009Zm14.593,10.3c-2.845,0-5.15-2.691-5.15-6.009s2.306-6.009,5.15-6.009,5.15,2.69,5.15,6.009S20.012,80.31,17.168,80.31Zm14.593,1.717H28.327a3.433,3.433,0,0,1,3.434-3.434Zm0-12.018a3.433,3.433,0,0,1-3.434-3.434h3.434Z" transform="translate(0 -64)" fill="#fff"/>
</svg>
